<svg width="101" height="100" viewBox="0 0 101 100" fill="none" xmlns="http://www.w3.org/2000/svg">
<path d="M70.7434 50.7071C71.134 50.3166 71.134 49.6834 70.7434 49.2929L64.3795 42.9289C63.989 42.5384 63.3558 42.5384 62.9653 42.9289C62.5747 43.3195 62.5747 43.9526 62.9653 44.3431L68.6221 50L62.9653 55.6569C62.5747 56.0474 62.5747 56.6805 62.9653 57.0711C63.3558 57.4616 63.989 57.4616 64.3795 57.0711L70.7434 50.7071ZM30.0155 51H70.0363V49H30.0155V51Z" fill="white"/>
<path d="M50.0264 1C77.103 1.00018 99.0518 22.9386 99.0518 50C99.0518 77.0614 77.103 98.9998 50.0264 99C22.9495 99 1 77.0615 1 50C1 22.9385 22.9495 1 50.0264 1Z" stroke="white" stroke-width="2"/>
</svg>
