<svg width="17" height="30" viewBox="0 0 17 30" fill="none" xmlns="http://www.w3.org/2000/svg">
<path d="M10.5061 30H5.70711C4.90553 30 4.25347 29.3472 4.25347 28.5448V17.7086H1.45364C0.652059 17.7086 0 17.0556 0 16.2534V11.61C0 10.8076 0.652059 10.1548 1.45364 10.1548H4.25347V7.82959C4.25347 5.52406 4.97663 3.56255 6.34454 2.15744C7.71862 0.745926 9.6389 0 11.8978 0L15.5577 0.0059509C16.3579 0.00732422 17.0089 0.660095 17.0089 1.46118V5.7724C17.0089 6.57486 16.357 7.22763 15.5557 7.22763L13.0915 7.22855C12.34 7.22855 12.1486 7.37938 12.1077 7.42561C12.0402 7.50229 11.96 7.71904 11.96 8.31757V10.1546H15.3705C15.6272 10.1546 15.876 10.218 16.0898 10.3374C16.5509 10.5954 16.8376 11.0831 16.8376 11.6103L16.8358 16.2536C16.8358 17.0556 16.1837 17.7084 15.3821 17.7084H11.96V28.5448C11.96 29.3472 11.3077 30 10.5061 30ZM6.01028 28.2413H10.2029V16.9212C10.2029 16.3854 10.6385 15.9496 11.1735 15.9496H15.079L15.0806 11.9135H11.1732C10.6383 11.9135 10.2029 11.4777 10.2029 10.9419V8.31757C10.2029 7.63046 10.2727 6.84906 10.7907 6.26175C11.4167 5.55176 12.4033 5.46982 13.091 5.46982L15.252 5.4689V1.76422L11.8964 1.75873C8.26619 1.75873 6.01028 4.08508 6.01028 7.82959V10.9419C6.01028 11.4775 5.57496 11.9135 5.03997 11.9135H1.75681V15.9496H5.03997C5.57496 15.9496 6.01028 16.3854 6.01028 16.9212V28.2413ZM15.5543 1.76468H15.5545H15.5543Z" fill="white"/>
</svg>
