<svg width="30" height="30" viewBox="0 0 30 30" fill="none" xmlns="http://www.w3.org/2000/svg">
<path d="M21.5389 0H7.99439C3.58621 0 0 3.58434 0 7.99022V21.5279C0 25.9335 3.58621 29.5179 7.99439 29.5179H21.5391C25.9471 29.5179 29.5333 25.9335 29.5333 21.5279V7.99022C29.5333 3.58434 25.9471 0 21.5389 0V0ZM27.8019 21.5279C27.8019 24.9794 24.9924 27.7874 21.5389 27.7874H7.99439C4.54089 27.7874 1.73137 24.9794 1.73137 21.5279V7.99022C1.73137 4.53853 4.54089 1.73046 7.99439 1.73046H21.5391C24.9924 1.73046 27.8019 4.53853 27.8019 7.99022V21.5279Z" fill="white"/>
<path d="M14.7666 6.68788C10.3138 6.68788 6.69128 10.3085 6.69128 14.759C6.69128 19.2094 10.3138 22.83 14.7666 22.83C19.2194 22.83 22.8418 19.2094 22.8418 14.759C22.8418 10.3085 19.2194 6.68788 14.7666 6.68788ZM14.7666 21.0996C11.2687 21.0996 8.42265 18.2552 8.42265 14.759C8.42265 11.2629 11.2687 8.41835 14.7666 8.41835C18.2647 8.41835 21.1105 11.2629 21.1105 14.759C21.1105 18.2552 18.2647 21.0996 14.7666 21.0996Z" fill="white"/>
<path d="M23.035 3.82146C21.7191 3.82146 20.6488 4.8914 20.6488 6.20636C20.6488 7.52155 21.7191 8.5915 23.035 8.5915C24.3508 8.5915 25.4213 7.52155 25.4213 6.20636C25.4213 4.89117 24.3508 3.82146 23.035 3.82146ZM23.035 6.86081C22.674 6.86081 22.3802 6.56714 22.3802 6.20636C22.3802 5.84536 22.674 5.55192 23.035 5.55192C23.3961 5.55192 23.69 5.84536 23.69 6.20636C23.69 6.56714 23.3961 6.86081 23.035 6.86081Z" fill="white"/>
</svg>
