<svg width="30" height="30" viewBox="0 0 30 30" fill="none" xmlns="http://www.w3.org/2000/svg">
<path d="M25.3385 4.19262C22.6333 1.48882 19.0374 0 15.2114 0C15.2112 0 15.2103 0 15.2101 0C13.3178 0.000225204 11.4738 0.366407 9.7296 1.08864C7.98517 1.81087 6.42234 2.85514 5.08415 4.19262C2.37917 6.8962 0.889572 10.4909 0.889572 14.3144C0.889572 16.5946 1.44003 18.8606 2.48304 20.8796L0.0757113 27.7532C-0.0939556 28.2381 0.0261407 28.7651 0.389809 29.1283C0.644197 29.3828 0.979025 29.5179 1.32332 29.5179C1.4709 29.5179 1.62006 29.4932 1.76562 29.4423L8.64288 27.0364C10.6629 28.0789 12.9301 28.6291 15.2114 28.6291C19.037 28.6291 22.6333 27.14 25.3385 24.4364C28.0435 21.7329 29.5333 18.1382 29.5333 14.3146C29.5333 10.4909 28.0437 6.8962 25.3385 4.19262ZM24.1137 23.2122C21.7358 25.589 18.5741 26.8977 15.2114 26.8977C13.1543 26.8977 11.1106 26.3892 9.30127 25.4267C8.9732 25.2524 8.58542 25.2224 8.2373 25.3442L1.98914 27.5298L4.17611 21.2849C4.29801 20.9365 4.26781 20.549 4.09342 20.2213C3.13062 18.4134 2.62162 16.3708 2.62162 14.3144C2.62162 10.9535 3.93118 7.79341 6.309 5.41683C8.68659 3.04048 11.8478 1.73159 15.2103 1.73114H15.2114C18.5744 1.73114 21.7358 3.04003 24.1137 5.41683C26.4917 7.79341 27.8013 10.9532 27.8013 14.3144C27.8013 17.6756 26.4917 20.8357 24.1137 23.2122Z" fill="white"/>
<path d="M20.534 15.5931C19.8752 14.9346 18.8031 14.9346 18.1442 15.5931L17.4237 16.3133C15.6344 15.3388 14.1865 13.8917 13.2113 12.1033L13.9319 11.3831C14.5909 10.7246 14.5909 9.65311 13.9319 8.99462L11.99 7.05381C11.3312 6.39531 10.2591 6.39531 9.60028 7.05381L8.04691 8.60637C7.15712 9.4957 7.11273 11.0246 7.92186 12.9116C8.62441 14.55 9.91009 16.3507 11.5421 17.9818C13.1741 19.613 14.9758 20.898 16.615 21.6002C17.512 21.9844 18.3279 22.176 19.0329 22.176C19.8118 22.176 20.4554 21.942 20.9225 21.4752L22.4758 19.9224V19.9226C22.7951 19.6035 22.9709 19.1795 22.9709 18.7284C22.9709 18.2771 22.7951 17.853 22.4758 17.5341L20.534 15.5931ZM19.6976 20.251C19.4437 20.5048 18.6627 20.5938 17.2975 20.0091C15.8559 19.3916 14.2469 18.2368 12.7669 16.7576C11.287 15.2785 10.1318 13.6705 9.51398 12.2297C8.92882 10.8652 9.01782 10.0844 9.27176 9.83058L10.7954 8.30775L12.6773 10.1889L11.7753 11.0906C11.3675 11.4982 11.269 12.1164 11.5306 12.629C12.7165 14.9531 14.5724 16.8081 16.8978 17.9933C17.4108 18.2548 18.0293 18.1566 18.4372 17.7488L19.3391 16.8473L21.2212 18.7284L19.6976 20.251Z" fill="white"/>
</svg>
